# xmcd
#
# Track frame offsets:
#	150
#	16593
#	27401
#	37484
#	49242
#	59752
#	71478
#	83518
#	95630
#	108698
#	121383
#	132890
#	145448
#	160536
#	172724
#	187660
#	201829
#	214282
#	232382
#	241629
#	257124
#	267160
#	279223
#	296129
#	309578
#	325623
#	340899
#
# Disc length: 4707 seconds
# Revision: 0
# Processed by: cddbd v1.5.2PL0 Copyright (c) Steve Scherf et al.
# Submitted via: dBpowerAMP V12.0
#
DISCID=8f12611b
DTITLE=Various Artist - The Odyssey - CD6 - Wigan Casino to Cleethorpes Pier
DYEAR=2007
DGENRE=R&B
TTITLE0=Hank Jacobs - Elijah Rockin' With Soul
TTITLE1=Lorraine Chandler - I Can't Change
TTITLE2=Johnny Bragg - They're Talking About Me
TTITLE3=Porgy and The Monarchs - My Heart Cries For You
TTITLE4=The Modern Redcaps - You're Never Too Young (To Fall In Love)
TTITLE5=The Pointer Sisters - Send Him Back
TTITLE6=The Matta Baby - Do The Pearl Girl Pt 2
TTITLE7=dee Edwards - All The Way Home
TTITLE8=Terry Callier - Look At Me Now
TTITLE9=World Column - So is The Sun
TTITLE10=Raw Soul - The Gig
TTITLE11=Prince George - Wrong Crowd
TTITLE12=The Montclairs - Hung Up On Your Love
TTITLE13=Frankie 'Loveman' Crocker - Ton Of Dynamite
TTITLE14=Boobie Man Orchestra - Lady Lady Lady (Instrumental)
TTITLE15=Kim Tolliver - I Don't Know What Foot To Dance On
TTITLE16=The Pretenders - I Wanna Be (You're Everything)
TTITLE17=James Walsh Gypsy Band - Cuz It's You Girl
TTITLE18=Ridger Collins - You Sexy Sugar Plum
TTITLE19=Black Nasy Ft Herbie Thompson - Cut Your Motor Off
TTITLE20=Joshie Jo Armstead - I Got The Vibes
TTITLE21=Rosey Jones - Have Love Will Travel
TTITLE22=The Rimshots - Do What You Feel
TTITLE23=Lynn Varnado - Wash And Wear Love
TTITLE24=Babe Ruth - Elusive
TTITLE25=The Brothers - Are You Ready For This
TTITLE26=The Moments - I've Got The Need
EXTD=
EXTT0=
EXTT1=
EXTT2=
EXTT3=
EXTT4=
EXTT5=
EXTT6=
EXTT7=
EXTT8=
EXTT9=
EXTT10=
EXTT11=
EXTT12=
EXTT13=
EXTT14=
EXTT15=
EXTT16=
EXTT17=
EXTT18=
EXTT19=
EXTT20=
EXTT21=
EXTT22=
EXTT23=
EXTT24=
EXTT25=
EXTT26=
PLAYORDER=
